<?xml version="1.0" encoding="utf-8"?>
<!-- Generator: Adobe Illustrator 22.0.0, SVG Export Plug-In . SVG Version: 6.00 Build 0)  -->
<svg version="1.1" id="Capa_1" xmlns="http://www.w3.org/2000/svg" xmlns:xlink="http://www.w3.org/1999/xlink" x="0px" y="0px"
	 viewBox="0 0 402 402" style="enable-background:new 0 0 402 402;" xml:space="preserve">
<g>
	<path fill="#bf95ff" d="M377.9,24.1C361.8,8,342.4,0,319.8,0H82.2c-22.6,0-42,8-58.1,24.1C8,40.2,0,59.6,0,82.2v237.5c0,22.6,8,42,24.1,58.1
		C40.2,394,59.6,402,82.2,402h237.5c22.6,0,42-8,58.1-24.1c16.1-16.1,24.1-35.5,24.1-58.1V82.2C402,59.6,394,40.2,377.9,24.1z
		 M365.4,319.8c0,12.6-4.5,23.3-13.4,32.3c-8.9,8.9-19.7,13.4-32.3,13.4H82.2c-12.6,0-23.3-4.5-32.3-13.4
		c-8.9-8.9-13.4-19.7-13.4-32.3V82.2C36.5,69.7,41,58.9,50,50c8.9-8.9,19.7-13.4,32.3-13.4h237.5c12.6,0,23.3,4.5,32.3,13.4
		c8.9,8.9,13.4,19.7,13.4,32.3L365.4,319.8L365.4,319.8z"/>
</g>
</svg>
